<?xml version="1.0" standalone="yes"?>
<svg xmlns="http://www.w3.org/2000/svg" width="500" height="500">
<path style="fill:#020209; stroke:none;" d="M0 0L0 500L500 500L500 0L0 0z"/>
<path style="fill:#e0ddf1; stroke:none;" d="M125 109L124 109L130 153L266 150L263 147L265 140C269.111 139.951 272.82 139.622 275.397 135.941C277.492 132.95 276.842 128.399 281.044 127.154C284.11 126.245 286.291 128.83 289.09 129.49C293.862 130.615 299.774 125.28 303.683 127.917C306.878 130.072 306.799 135.097 310.059 137.644C314.986 141.494 320.117 139.732 319 148L333 148C333 143.983 333.833 138.85 332.397 135.039C330.78 130.747 326.627 129.136 328.939 124.019C331.391 118.591 335.58 120.196 340 117.972C347.182 114.359 347.999 108.117 348 101L376 104C362.787 98.3893 352.25 88.3757 339 82.3087C297.445 63.2812 250.952 55.0319 206 65.6543C185.412 70.5194 166.169 79.578 149 91.8596C143.548 95.7596 131.238 109.597 125 109M364 82L364 83L387 86L387 84C380.459 81.2397 370.856 79.9743 364 82M352 84L352 86C356.279 87.0667 359.557 86.4543 361 82L352 84M75 84C72.4785 92.5273 72.8959 102.192 71.1968 111C65.3645 141.235 60.6365 170.119 61.0039 201C61.1234 211.047 65.1286 221.064 64.8711 231C64.6813 238.325 62.3622 245.626 62.0394 253C60.6313 285.157 64.5176 320.653 81 349L82 349C82 339.128 82.8559 328.824 81.8951 319C81.4175 314.117 78.9553 310.042 79.0185 305C79.2192 288.994 83.3242 272.322 80.8557 256.09C79.528 247.358 74.0818 239.425 73.1698 230C71.443 212.156 76.6453 198.025 79.6065 181C80.761 174.362 77.1255 167.48 80.4568 161.015C84.0499 154.043 90.3765 156.457 95.3194 152.397C100.331 148.28 101.565 140.702 106 136L106 135L103 133C106.631 118.469 87.2031 90.3833 75 84M389 86L397 97C402.046 99.2715 405.956 105.996 411.01 107.092C414.495 107.848 417.199 105.258 415.338 101.981C412.411 96.8275 406.101 90.8762 400 92C397.396 87.2543 394.262 86.1272 389 86z"/>
<path style="fill:#9bb7f8; stroke:none;" d="M75 87L76 88L75 87M79 91L80 92L79 91M84 96L85 97L84 96z"/>
<path style="fill:#e0ddf1; stroke:none;" d="M377 102L383 98L377 102z"/>
<path style="fill:#f67972; stroke:none;" d="M348 101C347.994 108.268 346.119 114.395 339 117.972C335.559 119.701 331.785 118.46 329.417 122.148C324.504 129.804 334.233 135.419 332.852 143.961C332.089 148.675 326.902 150.782 328.153 155.996C330.214 164.586 338.598 161.631 343.941 167.048C347.849 171.009 346.534 178.439 351.148 180.941C358.761 185.07 361.899 177.629 369 177.059C375.346 176.55 378.419 182.75 384.001 182.323C386.456 182.134 389.606 180.723 390.972 178.606C393.941 174.009 392.221 170.204 397.019 165.969C402.047 161.532 409.267 163.159 411.462 155.995C413.314 149.952 406.107 145.562 406.318 139C406.622 129.507 413.731 128.082 408 118C401.208 119.593 394.299 115.7 391.603 108.91C390.243 105.484 391.691 102.119 387.852 100.059C381.025 96.3961 378.247 102.896 372 103.852C365.193 104.894 362.822 100.045 357 98.8156C354.113 98.2062 350.732 100.221 348 101z"/>
<path style="fill:#e0ddf1; stroke:none;" d="M384 98L385 99L384 98M386.667 99.3333L387.333 99.6667L386.667 99.3333M389.667 100.333L390.333 100.667L389.667 100.333M391 101L391 111L392 111L391 101M119 104L120 105L119 104z"/>
<path style="fill:#9bb7f8; stroke:none;" d="M120 104L95 154L130 153C130 136.635 128.722 119.164 122 104L120 104z"/>
<path style="fill:#e0ddf1; stroke:none;" d="M122 104L123 105L122 104M118 106L119 107L118 106M123.333 106.667L123.667 107.333L123.333 106.667z"/>
<path style="fill:#9bb7f8; stroke:none;" d="M79 107L81 109L79 107z"/>
<path style="fill:#e0ddf1; stroke:none;" d="M117.333 108.667L117.667 109.333L117.333 108.667M116 111L117 112L116 111M392 111L393 112L392 111M115.333 113.667L115.667 114.333L115.333 113.667M395 113L396 114L395 113M396 114L397 115L396 114M114.333 115.667L114.667 116.333L114.333 115.667M397 115L398 116L397 115M361 117L361 118L369 117L361 117M371 116L371 117C385.742 117.675 393.886 130.229 394 144C399.855 130.015 383.663 116.27 371 116M398 117L399 118L398 117M113.333 118.667L113.667 119.333L113.333 118.667M347 132L348 132L360 119C353.574 118.472 348.61 126.58 347 132M399 118L399 119L407 119L399 118M408 118L409 119L408 118z"/>
<path style="fill:#9bb7f8; stroke:none;" d="M71.3333 119.667L71.6667 120.333L71.3333 119.667z"/>
<path style="fill:#e0ddf1; stroke:none;" d="M112.333 120.667L112.667 121.333L112.333 120.667M409 120L410 121L409 120M410 122L411 123L410 122M111 123L112 124L111 123M411.333 124.667L411.667 125.333L411.333 124.667M110 125L111 126L110 125z"/>
<path style="fill:#f67972; stroke:none;" d="M265 140L263 147C269.911 153.597 263.498 156.72 264.117 163.981C264.587 169.486 272.414 169.594 275.397 173.444C277.377 175.998 276.85 179.687 280.148 181.218C284.311 183.15 287.835 179.135 292 179.117C296.264 179.098 300.519 183.274 304.679 180.678C308.065 178.565 307.274 173.168 311.048 170.504C314.045 168.388 318.794 168.461 319.422 163.98C319.978 160.016 316.05 157.005 316.542 152.95C317.026 148.967 320.909 146.481 318.975 142.148C317.32 138.439 311.931 138.761 309.148 135.902C306.711 133.399 306.336 128.176 302.852 126.952C299.384 125.734 296.331 128.791 293.001 129.237C288.152 129.886 283.848 124.538 279.317 127.461C272.875 131.618 275.549 139.658 265 140z"/>
<path style="fill:#e0ddf1; stroke:none;" d="M412 126L412 129L413 129L412 126z"/>
<path style="fill:#9bb7f8; stroke:none;" d="M69 127L70 128L69 127z"/>
<path style="fill:#e0ddf1; stroke:none;" d="M109 127L110 128L109 127M108 129L109 130L108 129M411 129L412 130L411 129M410 130L411 131L410 130M107 131L108 132L107 131M365.044 132.028C353.761 138.041 363.938 154.902 374.895 148.821C385.74 142.802 375.858 126.264 365.044 132.028M409 131L410 132L409 131z"/>
<path style="fill:#9bb7f8; stroke:none;" d="M103 132L104 133L103 132z"/>
<path style="fill:#e0ddf1; stroke:none;" d="M408 132L409 133L408 132M106 133L107 134L106 133M346.333 133.667L346.667 134.333L346.333 133.667z"/>
<path style="fill:#f67972; stroke:none;" d="M366.189 133.743C357.397 137.587 363.964 150.883 372.956 147.396C382.632 143.643 375.329 129.746 366.189 133.743z"/>
<path style="fill:#e0ddf1; stroke:none;" d="M407 133L408 134L407 133M406 134L406 140L407 140L406 134M345 136L345 144L346 144L345 136M275 157L276 157C276.284 153.526 276.82 150.106 278.558 147.015C294.159 119.26 324.835 166.031 293 169.439C289.189 169.847 285.596 167.981 282 167C293.577 178.187 311.983 164.562 308.467 150C303.13 127.897 275.164 137.449 275 157M406 141L406 146L407 146L406 141M420 147L420 148L427 155C432.316 147.219 427.86 141.485 420 147M393 145C390.876 153.859 385.246 159.441 377 163L377 164C384.319 161.887 395.637 153.947 393 145z"/>
<path style="fill:#4242d5; stroke:none;" d="M407 146L407 147L416 147L407 146z"/>
<path style="fill:#9bb7f8; stroke:none;" d="M416.667 146.333L417.333 146.667L416.667 146.333z"/>
<path style="fill:#e0ddf1; stroke:none;" d="M112 147L109 153L110 153L112 147z"/>
<path style="fill:#020209; stroke:none;" d="M408 147L408 148L423 159L426 153C420.22 147.816 415.546 147.001 408 147z"/>
<path style="fill:#4242d5; stroke:none;" d="M418.667 147.333L419.333 147.667L418.667 147.333z"/>
<path style="fill:#e0ddf1; stroke:none;" d="M288.279 149.029C281.771 153.099 288.251 163.471 294.852 159.806C301.976 155.85 295.515 144.503 288.279 149.029z"/>
<path style="fill:#9bb7f8; stroke:none;" d="M319 148L319 149L322 149L319 148z"/>
<path style="fill:#4242d5; stroke:none;" d="M322 148L322 149L331 149L322 148M409 148L410 149L409 148M417 148L418 149L417 148M420 148L421 149L420 148z"/>
<path style="fill:#9bb7f8; stroke:none;" d="M421 148L422 149L421 148z"/>
<path style="fill:#f67972; stroke:none;" d="M289.318 150.032C283.99 153.463 289.189 161.551 294.682 157.968C299.779 154.644 294.513 146.687 289.318 150.032z"/>
<path style="fill:#020209; stroke:none;" d="M317 149L317 155L327 155L330 150L317 149z"/>
<path style="fill:#4242d5; stroke:none;" d="M410 149L411 150L410 149M422 149L423 150L422 149z"/>
<path style="fill:#9bb7f8; stroke:none;" d="M229 150L229 151L244 151L229 150z"/>
<path style="fill:#4242d5; stroke:none;" d="M244 150L244 151L253 151L252 155L254 151L266 151L244 150M316 150L316 155L317 155L316 150M328 150L329 151L328 150M411 150L412 151L411 150M423 150L425 152L423 150z"/>
<path style="fill:#9bb7f8; stroke:none;" d="M424 150L425 151L424 150M190 151L190 152L206 152L190 151z"/>
<path style="fill:#4242d5; stroke:none;" d="M206 151L206 152L225 152L206 151M327 151L328 152L327 151M412 151L413 152L412 151z"/>
<path style="fill:#9bb7f8; stroke:none;" d="M83 152L84 153L83 152M151 152L151 153L167 153L151 152z"/>
<path style="fill:#4242d5; stroke:none;" d="M167 152L167 153L188 153L167 152M326.333 152.667L326.667 153.333L326.333 152.667M425 152L426 153L425 152M120 153L120 154L147 154L120 153M413 153L413 154C417.683 155.593 420.646 158.188 422 163C425.717 160.793 427.091 158.326 427 154L424 154L423 159L413 153z"/>
<path style="fill:#9bb7f8; stroke:none;" d="M426 153L427 154L426 153M87 154L88 155L87 154z"/>
<path style="fill:#4242d5; stroke:none;" d="M88 154L88 155L107 155L88 154M108.667 154.333L109.333 154.667L108.667 154.333M327 154L317 155L317 156L327 154z"/>
<path style="fill:#9bb7f8; stroke:none;" d="M408 163C414.417 166.023 415.321 178.114 409 182L409 183L412 180L413 180C413.001 188.866 416.086 191.074 421 198C424.058 190.711 424.286 169.676 422.262 162.001C419.11 150.052 411.446 155.677 408 163M85 155L86 156L85 155z"/>
<path style="fill:#4242d5; stroke:none;" d="M86 155L87 156L86 155z"/>
<path style="fill:#9bb7f8; stroke:none;" d="M427 155L428 156L427 155M79 156L80 157L79 156M83 156L81 159L83 156z"/>
<path style="fill:#4242d5; stroke:none;" d="M84 156L85 157L84 156z"/>
<path style="fill:#9bb7f8; stroke:none;" d="M316 156L319 166L343 166L333.133 162.172L327.586 157.024L316 156z"/>
<path style="fill:#e0ddf1; stroke:none;" d="M428 156L429 157L428 156z"/>
<path style="fill:#4242d5; stroke:none;" d="M83 157L84 158L83 157M237 157L237 158L264 158L237 157z"/>
<path style="fill:#9bb7f8; stroke:none;" d="M90 284L97 281L97 280C93.5821 274.985 93.0068 256.24 94 250L95 253L96 253L95.9969 225.996L97.0278 214.318L109 212L145 213C146.205 202.308 161.925 206 170 206C190.026 206 210.048 206.759 230 206.996C240.662 207.123 251.651 204.06 251 218L252 218L252 215L293 215C297.062 215 305.256 213.463 308.397 216.603C318.079 226.286 301.224 243.943 318 251L314.39 218L323 204C266.942 204 211.018 205 155 205L114 205C109.776 205 102.677 206.33 99.6034 202.682C95.3079 197.584 96.0346 174.429 103.019 172.279C111.089 169.794 120.675 171 129 171C141.369 171 153.61 170 166 170C198.978 170 232.003 167 265 167L267 157C254.674 158.558 242.385 157.497 230 158.039C199.787 159.362 169.245 161 139 161C127.314 161 99.3889 156.975 91.5139 167.105C85.9342 174.282 89 190.346 89 199C89 227.382 90 255.609 90 284z"/>
<path style="fill:#020209; stroke:none;" d="M427 157C419.024 171.036 422.275 192.217 426 207L427 207C427 192.614 432.609 170.368 427 157z"/>
<path style="fill:#9bb7f8; stroke:none;" d="M428.333 157.667L428.667 158.333L428.333 157.667z"/>
<path style="fill:#4242d5; stroke:none;" d="M82 158L83 159L82 158M200 158L200 159L226 159L200 158M81 159L82 160L81 159M164 159L164 160L188 160L164 159M428 159L428 168L429 168L428 159z"/>
<path style="fill:#9bb7f8; stroke:none;" d="M80 160L81 161L80 160z"/>
<path style="fill:#4242d5; stroke:none;" d="M126 160L126 161L151 161L126 160M80.3333 161.667L80.6667 162.333L80.3333 161.667M100 161L100 162L115 162L100 161z"/>
<path style="fill:#e0ddf1; stroke:none;" d="M357 161L357 162L360 163L357 161z"/>
<path style="fill:#9bb7f8; stroke:none;" d="M79 162L79 176L80 176L79 162z"/>
<path style="fill:#4242d5; stroke:none;" d="M96.6667 162.333L97.3333 162.667L96.6667 162.333z"/>
<path style="fill:#e0ddf1; stroke:none;" d="M93 231L95 231C94.7113 217.014 94 203.051 94 189C94 183.8 92.7369 176.603 95.7423 172.044C101.401 163.46 116.232 166 125 166C151.68 166 178.302 164 205 164L205 162C177.434 164.176 149.52 162.211 122 164.83C113.497 165.639 100.641 162.094 94.7029 170.108C89.8185 176.7 92.1148 187.482 92.8302 195C93.9545 206.813 93 219.134 93 231z"/>
<path style="fill:#9bb7f8; stroke:none;" d="M400 162L400 163L406 163L400 162z"/>
<path style="fill:#e0ddf1; stroke:none;" d="M392 180C389.194 180.483 385.838 182.259 383 181.869C376.598 180.988 373.458 176.136 366 177.473C360.699 178.423 358.839 184.163 352.98 181.537C346.8 178.767 349.651 173.937 346.486 169.329C342.25 163.163 329.595 164.128 323.039 165.147C310.151 167.151 309.292 179.391 299 183C294.635 175.084 284.077 182.115 277 181C276.82 165.758 258.592 165.902 247 167.424C211.864 172.038 174.441 169.409 139 170.961C129.957 171.357 106.449 166.705 99.6034 173.603C96.7325 176.495 98 183.293 98 187C98 191.241 96.3368 200.13 99.6034 203.397C102.029 205.822 106.899 205 110 205L137 205C199.052 205 260.928 204 323 204C308.448 218.903 318 232.935 318 251C308.086 245.104 310 237.537 310 227C310 224.09 310.912 219.052 308.972 216.603C306.435 213.4 297.632 215 294 215L252 215L253 266L250.397 285.397L236 287L199 288C199 294.698 195.665 314.424 200.603 319.258C205.566 324.116 223.38 321 230 321L282 321C289.627 321 299.492 322.598 306.886 320.675C310.762 319.667 314.122 315.631 318 314C318 324.741 312.776 345.95 327 346C321.658 331.317 332.78 332.078 343 335C343 326.054 346.337 316.496 337 312L347.004 296.653L358 291C363.448 293.254 369.636 292.825 375 295.009C379.72 296.931 388.598 305.524 386.455 311.471C385.465 314.219 382.151 315.086 381.318 318.104C379.84 323.458 381 330.461 381 336C390.921 332.152 402.451 331.576 398 346C401.35 346 408.63 347.355 410.972 344.397C414.795 339.569 412 324.034 412 318C412 294.341 408.336 267.36 412.148 244.04C412.89 239.504 417.598 237.374 420.236 233.96C424.329 228.662 426.921 221.735 426.921 215C426.921 200.352 413.01 193.559 413 180L412 180L409 183L409 182L410 180C422.523 171.152 401.999 152.183 393.028 170.001C391.524 172.988 392 176.759 392 180z"/>
<path style="fill:#4242d5; stroke:none;" d="M95 163L96 164L95 163z"/>
<path style="fill:#e0ddf1; stroke:none;" d="M361.667 163.333L362.333 163.667L361.667 163.333z"/>
<path style="fill:#4242d5; stroke:none;" d="M93 164L94 165L93 164z"/>
<path style="fill:#e0ddf1; stroke:none;" d="M364 164L364 165L376 165L364 164z"/>
<path style="fill:#4242d5; stroke:none;" d="M92 165L93 166L92 165M91 166L92 167L91 166M90 167L91 168L90 167z"/>
<path style="fill:#9bb7f8; stroke:none;" d="M318 167L319 168L318 167M344 167L345 168L344 167z"/>
<path style="fill:#4242d5; stroke:none;" d="M422 167L422 195L423 195L422 167z"/>
<path style="fill:#9bb7f8; stroke:none;" d="M313.667 168.333L314.333 168.667L313.667 168.333M317 168L318 169L317 168M428 168L428 186L429 186L428 168z"/>
<path style="fill:#4242d5; stroke:none;" d="M89.3333 169.667L89.6667 170.333L89.3333 169.667z"/>
<path style="fill:#9bb7f8; stroke:none;" d="M392 169L393 170L392 169M310 170L311 171L310 170z"/>
<path style="fill:#4242d5; stroke:none;" d="M88 171L88 216L89 216C89 203.258 92.91 182.701 88 171z"/>
<path style="fill:#9bb7f8; stroke:none;" d="M309 171L310 172L309 171M308 172L309 173L308 172z"/>
<path style="fill:#4242d5; stroke:none;" d="M80 173L80 219L81 219C81 205.997 85.0098 184.939 80 173z"/>
<path style="fill:#9bb7f8; stroke:none;" d="M276 173L277 174L276 173M322 174L324 178L325 178L322 174M306 175L307 176L306 175M260 177L263 180L260 177M368 177L368 178L372 178L368 177M376 177L377 178L376 177M391 179L392 180L391 179M277 180L278 181L277 180M316 185L321 180L316 185M280 181L281 182L280 181M285 181L286 182L285 181M303 181L304 182L303 181M352 181L353 182L352 181M79 182C73.5504 199.043 70.8343 217.131 73.7539 235C74.7332 240.994 75.3428 249.729 81 253L80 206L79 182M264 182L264 183L269 186L264 182M282 182L283 183L282 182M284 182L285 183L284 182M299.667 182.333L300.333 182.667L299.667 182.333M329 182L334 187L329 182M357 183L358 184L357 183z"/>
<path style="fill:#e0ddf1; stroke:none;" d="M428 186L428 193L429 193L428 186z"/>
<path style="fill:#9bb7f8; stroke:none;" d="M272 187L278 191L272 187M308 189L308 190L313 188L308 189z"/>
<path style="fill:#4242d5; stroke:none;" d="M427 188L427 211L428 211L427 188z"/>
<path style="fill:#9bb7f8; stroke:none;" d="M339 189L342 192L339 189M304 190L299 192L299 193L304 190M281 191L286 193L286 192L281 191M291 192L291 193L295 194L291 192M343 192L343 194L345 194L345 192L343 192M350 195L350 196L353 196L350 195M356.333 196.667L356.667 197.333L356.333 196.667M354 197L355 198L354 197M363 198L370 199L363 198z"/>
<path style="fill:#e0ddf1; stroke:none;" d="M365.667 198.333L366.333 198.667L365.667 198.333z"/>
<path style="fill:#4242d5; stroke:none;" d="M422 198L423 199L422 198z"/>
<path style="fill:#9bb7f8; stroke:none;" d="M422 199L423 200L422 199z"/>
<path style="fill:#4242d5; stroke:none;" d="M423 200L424 201L423 200M424.333 201.667L424.667 202.333L424.333 201.667z"/>
<path style="fill:#9bb7f8; stroke:none;" d="M347 204C352.867 212.231 369.06 215.838 371 203L347 204z"/>
<path style="fill:#e0ddf1; stroke:none;" d="M428 203L425 321L426 321C433.487 292.993 435.44 265.834 434.039 237C433.545 226.848 433.512 211.773 428 203z"/>
<path style="fill:#4242d5; stroke:none;" d="M425 204L426 205L425 204z"/>
<path style="fill:#9bb7f8; stroke:none;" d="M425 205L426 206L425 205z"/>
<path style="fill:#4242d5; stroke:none;" d="M147 246L148 246L148 209L149 209L149 279L150 279L154 259C157.62 268.857 155.247 275.199 153 285L182 285L182 286C174.851 286 155.13 282.629 151 289L251 286C252.52 266.736 252.001 247.349 252 228C252 223.331 253.567 211.204 249.411 208.028C245.179 204.793 234.137 207.186 229 206.961C209.349 206.1 189.717 206 170 206C165.052 206 149.466 203.453 146.179 207.603C144.174 210.134 145 214.999 145 218C144.999 227.73 145.793 236.517 147 246z"/>
<path style="fill:#9bb7f8; stroke:none;" d="M149 208L149 209L158 209L149 208M148 209L148 254L149 254C149 241.258 152.91 220.701 148 209M159 209L159 210L224 210C229.269 210 242.429 207.636 246.397 211.603C250.003 215.209 247.834 225.299 248.039 230C248.819 247.797 248.367 265.223 248 283L221 283L221 284L249 284C249.386 265.32 250.949 246.7 249.17 228C248.739 223.47 250.912 214.316 247.972 210.603C244.837 206.645 230.67 209 226 209L159 209M393 222C390.271 217.672 387.177 213.155 394 211C387.17 206.296 383.612 220.503 393 222M399 220L395 220L395 222C402.498 221.416 400.579 216.555 397 212L401 210C392.858 208.81 397.069 215.9 399 220M407 220L403 220L403 222C410.976 221.364 407.165 215.999 405 211L409 211C401.324 205.692 404.936 216.718 407 220M426.333 209.667L426.667 210.333L426.333 209.667M63.3333 210.667L63.6667 211.333L63.3333 210.667M427 211L427 230L428 230L427 211z"/>
<path style="fill:#e0ddf1; stroke:none;" d="M96 253L95 253L94 250L95 280C101.285 278.995 110.004 252.108 119.821 271C120.819 272.921 120.885 274.897 121 277L120 277L118 273C113.962 274.428 111.717 275.608 111 280L107 279C107.931 283.323 111.307 281.431 112 278L113 278L113 282L113 283L118 282L117 284L118 284L121 283L117 286L117 287L122 294L119 295L124 301C120.745 301.14 96.1158 302.531 106.319 310.103C111.637 314.049 122.381 309.288 128 308L126 318L174 318C177.938 318 188.254 319.829 190.972 316.397C195.029 311.275 192 294.449 192 288L151 290L150 289C155.085 280.056 157.702 269.885 154 260L153 260C152.271 270.323 151.928 277.626 145 286L145 272L144 272L134 294L125 292C143.364 275.362 144.999 256.799 145 234C145 229.103 147.124 217.582 143.972 213.603C141.975 211.082 136.803 212 134 212L107 212C104.197 212 99.0248 211.082 97.0278 213.603C94.94 216.239 96.0284 221.86 95.9961 225C95.9001 234.333 96 243.654 96 253z"/>
<path style="fill:#9bb7f8; stroke:none;" d="M379 212L374 215L380 220L377 217L377 215L379 212M415 212L419 215L415 220L421 217L421 215L415 212M336 217L332 229L333 229L336 217M168 218L169 219L168 218z"/>
<path style="fill:#e0ddf1; stroke:none;" d="M169.005 218.757C158.165 222.684 163.872 239.565 174.985 235.396C185.507 231.448 179.375 215 169.005 218.757z"/>
<path style="fill:#9bb7f8; stroke:none;" d="M174.667 218.333L175.333 218.667L174.667 218.333M166 219L167 220L166 219M165 220L166 221L165 220M324 222L330 226L330 225L327 224L327 222L330 221L324 222M340 220L340 221L343 223L340 226L345 224L345 222L340 220M164 221L165 222L164 221z"/>
<path style="fill:#4242d5; stroke:none;" d="M426 221L426 224L427 224L426 221z"/>
<path style="fill:#9bb7f8; stroke:none;" d="M163 222L164 223L163 222M179 222L180 223L179 222M180.333 223.667L180.667 224.333L180.333 223.667M162 224L162 230L163 230L162 224M425 224L426 225L425 224z"/>
<path style="fill:#4242d5; stroke:none;" d="M425 225L426 226L425 225z"/>
<path style="fill:#9bb7f8; stroke:none;" d="M424 226L425 227L424 226M194 228L194 229L200 233C200.551 228.936 197.66 227.47 194 228z"/>
<path style="fill:#4242d5; stroke:none;" d="M424 227L425 228L424 227z"/>
<path style="fill:#e0ddf1; stroke:none;" d="M238 276C237.393 270.414 229.105 253.788 222.826 252.921C218.493 252.322 214.964 259.892 211.074 254.808C206.611 248.974 204.644 240.518 201.243 234.005C200.146 231.904 198.36 227.798 195.285 229.176C192.011 230.643 189.942 236.096 188.2 239C183.222 247.297 178.281 255.631 173.424 264C172.103 266.277 167.23 272.41 169.85 274.972C172.885 277.939 183.981 276 188 276L238 276z"/>
<path style="fill:#4242d5; stroke:none;" d="M423 229L424 230L423 229z"/>
<path style="fill:#9bb7f8; stroke:none;" d="M180 230L181 231L180 230M193 230L194 231L193 230M422 230L423 231L422 230M163 231L164 232L163 231M192 231L193 232L192 231M252 231L252 277L253 277C253 263.996 257.01 242.939 252 231z"/>
<path style="fill:#4242d5; stroke:none;" d="M422 231L423 232L422 231z"/>
<path style="fill:#9bb7f8; stroke:none;" d="M179 232L180 233L179 232z"/>
<path style="fill:#4242d5; stroke:none;" d="M421 232L421 235L422 235L421 232z"/>
<path style="fill:#9bb7f8; stroke:none;" d="M164 233L165 234L164 233M178 233L179 234L178 233M191 233L192 234L191 233M420 233C417.905 235.841 414.011 238.122 412.603 241.325C410.011 247.224 412 257.609 412 264L412 316C412 321.943 415.083 341.368 409.682 344.972C406.711 346.955 401.408 346 398 346L399 343L398 343L381 355C389.683 351.835 410.436 357.426 416.397 350.566C420.654 345.667 417.964 331.359 418.715 325C421.237 303.622 420 280.543 420 259C420 251.041 423.125 240.448 420 233z"/>
<path style="fill:#4242d5; stroke:none;" d="M426 233L426 255L427 255L426 233z"/>
<path style="fill:#9bb7f8; stroke:none;" d="M165 234L166 235L165 234M177 234L178 235L177 234M201 234L202 235L201 234M167 235L168 236L167 235M176 235L177 236L176 235M190 235L191 236L190 235M169 236L169 237L174 237L169 236M189 236L190 237L189 236M202 236L203 237L202 236z"/>
<path style="fill:#4242d5; stroke:none;" d="M89 238L89 276L90 276C90 265.089 93.2113 248.036 89 238z"/>
<path style="fill:#9bb7f8; stroke:none;" d="M188 238L189 239L188 238M203 238L204 239L203 238z"/>
<path style="fill:#4242d5; stroke:none;" d="M81 240L81 275L82 275L81 240z"/>
<path style="fill:#9bb7f8; stroke:none;" d="M187 240L188 241L187 240M204 240L205 241L204 240M145.333 241.667L145.667 242.333L145.333 241.667z"/>
<path style="fill:#f67972; stroke:none;" d="M146 241C141.863 249.107 146.893 253.8 144.735 261.3C141.36 273.031 132.358 282.715 125 292L134 294C142.549 278.583 154.678 259.058 146 241z"/>
<path style="fill:#9bb7f8; stroke:none;" d="M186 241L187 242L186 241M205.333 242.667L205.667 243.333L205.333 242.667M185 243L186 244L185 243M184 245L185 246L184 245M206 245L207 246L206 245M207 247L208 248L207 247z"/>
<path style="fill:#4242d5; stroke:none;" d="M420 247L420 273L421 273L420 247z"/>
<path style="fill:#e0ddf1; stroke:none;" d="M80.3333 248.667L80.6667 249.333L80.3333 248.667z"/>
<path style="fill:#9bb7f8; stroke:none;" d="M182 248L183 249L182 248M208 249L209 250L208 249M181 250L182 251L181 250M209 251L210 252L209 251M222 251L223 252L222 251M180 252L181 253L180 252M220 252L221 253L220 252M224 252L225 253L224 252M179 253L180 254L179 253M210.333 253.667L210.667 254.333L210.333 253.667M219 253L220 254L219 253M95 254L96 255L95 254M218 254L219 255L218 254M225 254L226 255L225 254M178 255L179 256L178 255M217 255L218 256L217 255M226 255L227 256L226 255M426 255L426 272L427 272L426 255M145 256L146 257L145 256M211 256L212 257L211 256M216 256L217 257L216 256M177 257L178 258L177 257M212 257L212 258L215 258L212 257M176 258L177 259L176 258M228 258L229 259L228 258M145 259L146 260L145 259M153 259L154 260L153 259M154 260L155 261L154 260M175 260L176 261L175 260M366.667 260.333L367.333 260.667L366.667 260.333M148 261L148 282L149 282L148 261M152 261L152 265L153 265L152 261M230 261L231 262L230 261M357 261L357 262L363 262L357 261z"/>
<path style="fill:#4242d5; stroke:none;" d="M363 261L363 262L366 262L363 261z"/>
<path style="fill:#020209; stroke:none;" d="M352 280L353 280L353 276C356.797 276 373.355 272.582 372 278C384.101 264.268 355.236 253.811 351.303 270.09C350.518 273.34 351.245 276.831 352 280z"/>
<path style="fill:#4242d5; stroke:none;" d="M368 261L369 262L368 261z"/>
<path style="fill:#9bb7f8; stroke:none;" d="M369 261L370 262L369 261M155 262L155 265L156 265L155 262M174 262L175 263L174 262M231 262L232 263L231 262z"/>
<path style="fill:#4242d5; stroke:none;" d="M356.667 262.333L357.333 262.667L356.667 262.333z"/>
<path style="fill:#9bb7f8; stroke:none;" d="M370 262L371 263L370 262z"/>
<path style="fill:#4242d5; stroke:none;" d="M355 263L356 264L355 263M370 263L371 264L370 263M147 264L146 284L147 284L147 264z"/>
<path style="fill:#9bb7f8; stroke:none;" d="M232 264L233 265L232 264z"/>
<path style="fill:#4242d5; stroke:none;" d="M354 264L355 265L354 264z"/>
<path style="fill:#9bb7f8; stroke:none;" d="M371 264L374 267L371 264M107 265L108 266L107 265z"/>
<path style="fill:#4242d5; stroke:none;" d="M108 265L108 266L114 266L108 265z"/>
<path style="fill:#9bb7f8; stroke:none;" d="M114.667 265.333L115.333 265.667L114.667 265.333M172 265L173 266L172 265M233 265L234 266L233 265M353 265L352 267L353 265z"/>
<path style="fill:#4242d5; stroke:none;" d="M371 265L372 266L371 265z"/>
<path style="fill:#9bb7f8; stroke:none;" d="M105 266L106 267L105 266z"/>
<path style="fill:#4242d5; stroke:none;" d="M106 266L107 267L106 266M115.667 266.333L116.333 266.667L115.667 266.333M353 266L354 267L353 266M372 266L373 267L372 266z"/>
<path style="fill:#9bb7f8; stroke:none;" d="M103 267L102 269L103 267z"/>
<path style="fill:#4242d5; stroke:none;" d="M104 267L105 268L104 267M117 267L118 268L117 267z"/>
<path style="fill:#9bb7f8; stroke:none;" d="M152 267L152 273L153 273L152 267M156 267L156 273L157 273L156 267M171 267L172 268L171 267M351 267L352 268L351 267z"/>
<path style="fill:#4242d5; stroke:none;" d="M374 267L376 269L374 267z"/>
<path style="fill:#9bb7f8; stroke:none;" d="M375 267L376 268L375 267z"/>
<path style="fill:#4242d5; stroke:none;" d="M103 268L104 269L103 268M118 268L119 269L118 268z"/>
<path style="fill:#9bb7f8; stroke:none;" d="M235 268L236 269L235 268M350 268L351 269L350 268z"/>
<path style="fill:#4242d5; stroke:none;" d="M102 269L103 272L101 271L101 272C102.715 277.041 101.64 279.527 99 284C104.431 281.15 105.687 273.867 102 269z"/>
<path style="fill:#9bb7f8; stroke:none;" d="M119 269L120 270L119 269M170 269L171 270L170 269M236 269L237 270L236 269z"/>
<path style="fill:#4242d5; stroke:none;" d="M350 269L350 276L351 276L350 269M352 269L353 270L352 269z"/>
<path style="fill:#9bb7f8; stroke:none;" d="M376.333 269.667L376.667 270.333L376.333 269.667M101 270L102 271L101 270z"/>
<path style="fill:#020209; stroke:none;" d="M102.333 270.667L102.667 271.333L102.333 270.667z"/>
<path style="fill:#4242d5; stroke:none;" d="M119 270L120 271L119 270z"/>
<path style="fill:#9bb7f8; stroke:none;" d="M169 270L170 271L169 270M120.333 271.667L120.667 272.333L120.333 271.667M237 271L238 272L237 271M349.333 271.667L349.667 272.333L349.333 271.667z"/>
<path style="fill:#4242d5; stroke:none;" d="M375.333 271.667L375.667 272.333L375.333 271.667z"/>
<path style="fill:#9bb7f8; stroke:none;" d="M100 272L100 276L101 276L100 272z"/>
<path style="fill:#4242d5; stroke:none;" d="M116 272L117 273L116 272z"/>
<path style="fill:#9bb7f8; stroke:none;" d="M117 272L119 274L117 272z"/>
<path style="fill:#4242d5; stroke:none;" d="M118 272L119 273L118 272z"/>
<path style="fill:#9bb7f8; stroke:none;" d="M168 272L169 273L168 272M238 272L238 275L239 275L238 272M275 272L275 288L278 279L282 279L282 288L285 288C284.985 282.605 284.962 276.429 278 278L278 272L275 272M314 272L314 288L317 288L317 272L314 272z"/>
<path style="fill:#4242d5; stroke:none;" d="M357 272L358 273L357 272M113.667 273.333L114.333 273.667L113.667 273.333z"/>
<path style="fill:#f67972; stroke:none;" d="M115 273L116 274L115 273z"/>
<path style="fill:#9bb7f8; stroke:none;" d="M116 273L117 274L116 273z"/>
<path style="fill:#4242d5; stroke:none;" d="M120 273L121 276L120 273z"/>
<path style="fill:#9bb7f8; stroke:none;" d="M375.333 273.667L375.667 274.333L375.333 273.667z"/>
<path style="fill:#4242d5; stroke:none;" d="M111 274L110 278L111 278L111 274z"/>
<path style="fill:#9bb7f8; stroke:none;" d="M112.667 274.333L113.333 274.667L112.667 274.333M145 274L145 286L146 286L145 274M155.333 274.667L155.667 275.333L155.333 274.667M168 274L169 275L168 274M289 274C287.038 279.153 286.324 286.886 293 288L293 277L291 274L289 274z"/>
<path style="fill:#4242d5; stroke:none;" d="M357 274L353 276L355 283L357 274z"/>
<path style="fill:#f67972; stroke:none;" d="M358 274L358 275L362 275L358 274z"/>
<path style="fill:#4242d5; stroke:none;" d="M362.667 274.333L363.333 274.667L362.667 274.333M374.333 274.667L374.667 275.333L374.333 274.667z"/>
<path style="fill:#9bb7f8; stroke:none;" d="M81 275L81 295L82 295L81 275M111 275L112 276L111 275M119 275L120 276L119 275M151 275L152 276L151 275z"/>
<path style="fill:#e0ddf1; stroke:none;" d="M357 277L363 276L357 277z"/>
<path style="fill:#f67972; stroke:none;" d="M357 279L363 282L368 280L367 283L372 280L369 276L365 277C364.326 273.172 358.265 276.691 357 279z"/>
<path style="fill:#4242d5; stroke:none;" d="M366 275L367 276L366 275M101.333 276.667L101.667 277.333L101.333 276.667z"/>
<path style="fill:#9bb7f8; stroke:none;" d="M120 276L121 277L120 276M170 276L170 277L237 277L216 276L170 276M270 276L263 280L263 282L271 285L266 281L270 276M321 276L326 281L321 285L329 282L329 280L321 276M350.333 276.667L350.667 277.333L350.333 276.667z"/>
<path style="fill:#f67972; stroke:none;" d="M356 276L357 277L356 276z"/>
<path style="fill:#e0ddf1; stroke:none;" d="M365.667 276.333L366.333 276.667L365.667 276.333z"/>
<path style="fill:#4242d5; stroke:none;" d="M369 276L370 277L369 276z"/>
<path style="fill:#f67972; stroke:none;" d="M370.667 276.333L371.333 276.667L370.667 276.333z"/>
<path style="fill:#4242d5; stroke:none;" d="M372 276L373 277L372 276z"/>
<path style="fill:#9bb7f8; stroke:none;" d="M374 276L375 277L374 276z"/>
<path style="fill:#4242d5; stroke:none;" d="M425 276L425 297L426 297L425 276z"/>
<path style="fill:#9bb7f8; stroke:none;" d="M150.333 277.667L150.667 278.333L150.333 277.667M296 277L296 288L298 288C298.049 283.839 298.17 281.112 302 279L302 288L305 288L305 279C308.83 281.112 308.951 283.839 309 288L311 288C310.999 275.809 306.419 277.785 296 277z"/>
<path style="fill:#e0ddf1; stroke:none;" d="M368 277L368 278L371 278L368 277z"/>
<path style="fill:#9bb7f8; stroke:none;" d="M371 277L372 278L371 277z"/>
<path style="fill:#4242d5; stroke:none;" d="M373 277L372 279L373 277z"/>
<path style="fill:#9bb7f8; stroke:none;" d="M100 278L99 280L100 278z"/>
<path style="fill:#4242d5; stroke:none;" d="M107.667 278.333L108.333 278.667L107.667 278.333z"/>
<path style="fill:#f67972; stroke:none;" d="M110 278L109 280L111 280L110 278M112 278L110 281C110.537 290.503 105.513 295.707 103.448 304.039C102.132 309.352 106.35 314.722 106.812 320C107.078 323.03 105.456 327.115 106.698 329.941C108.402 333.818 117.215 334.274 119.925 331.397C124.589 326.445 127.424 314.599 128 308C122.22 308.85 113.487 313.35 107.774 310.512C103.989 308.632 104.169 304.186 108.059 302.603C112.348 300.859 119.328 301.369 124 301L120 294L116 296L119 288L117 287L117 286L121 283L117 284L118 282L117 282L113 283L113 282L115 281L115 280L112 278z"/>
<path style="fill:#9bb7f8; stroke:none;" d="M154.333 278.667L154.667 279.333L154.333 278.667z"/>
<path style="fill:#4242d5; stroke:none;" d="M351 278L352 279L351 278z"/>
<path style="fill:#f67972; stroke:none;" d="M355.333 278.667L355.667 279.333L355.333 278.667z"/>
<path style="fill:#9bb7f8; stroke:none;" d="M373 278L374 279L373 278z"/>
<path style="fill:#4242d5; stroke:none;" d="M100 279L101 280L100 279M106 279L107 280L106 279z"/>
<path style="fill:#9bb7f8; stroke:none;" d="M351 279L352 280L351 279M372 279L373 280L372 279z"/>
<path style="fill:#4242d5; stroke:none;" d="M97.6667 280.333L98.3333 280.667L97.6667 280.333z"/>
<path style="fill:#f67972; stroke:none;" d="M106 280L107 281L106 280M108 280L109 281L108 280M358 280L359 281L358 280z"/>
<path style="fill:#4242d5; stroke:none;" d="M94.6667 281.333L95.3333 281.667L94.6667 281.333M106 281L107 282L106 281z"/>
<path style="fill:#9bb7f8; stroke:none;" d="M153.333 281.667L153.667 282.333L153.333 281.667M251 281L251 286L252 286L251 281M352 281L353 282L352 281z"/>
<path style="fill:#f67972; stroke:none;" d="M354 281L355 282L354 281z"/>
<path style="fill:#4242d5; stroke:none;" d="M92.6667 282.333L93.3333 282.667L92.6667 282.333M107 282L108 283L107 282z"/>
<path style="fill:#f67972; stroke:none;" d="M108 282L109 283L108 282z"/>
<path style="fill:#9bb7f8; stroke:none;" d="M109 282L110 283L109 282z"/>
<path style="fill:#4242d5; stroke:none;" d="M91 283L92 284L91 283M109 283L111 285L111 283L109 283z"/>
<path style="fill:#9bb7f8; stroke:none;" d="M147 283L148 284L147 283M354 283L355 284L354 283z"/>
<path style="fill:#4242d5; stroke:none;" d="M95 287L99 284L95 287z"/>
<path style="fill:#9bb7f8; stroke:none;" d="M152 284C156.522 289.174 175.232 286 182 286L182 285L152 284M184 284L184 285L219 285L184 284M151 286L152 287L151 286M234 286L234 287L251 287L234 286z"/>
<path style="fill:#4242d5; stroke:none;" d="M84 311C80.5549 299.371 88.7072 295.228 95 287C87.9687 289.977 74.467 303.743 84 311M109 287L109 290L110 290L109 287z"/>
<path style="fill:#9bb7f8; stroke:none;" d="M199 287L199 288L222 288L199 287z"/>
<path style="fill:#4242d5; stroke:none;" d="M419 287L419 313L420 313L419 287M98 288C93.3021 292.923 82.4594 306.411 90 313C87.3682 301.816 98.1987 296.994 98 288z"/>
<path style="fill:#020209; stroke:none;" d="M117 288L116 295L121 293L117 288z"/>
<path style="fill:#4242d5; stroke:none;" d="M118 288L120 290L118 288z"/>
<path style="fill:#9bb7f8; stroke:none;" d="M119 288L120 289L119 288M150 288L151 289L150 288M166 288L166 289L187 289L166 288M192 288C192 294.298 195.029 311.764 190.397 316.397C187.007 319.786 177.416 318 173 318L125 318L122 332L119 353L264 353C288.147 353 315.253 349.591 339 354L340 353L340 351L326 344C326 347.964 319.177 346.123 318.167 343C315.59 335.036 318 322.409 318 314C313.456 315.316 310.269 319.715 305.946 320.611C282.936 325.381 254.519 321 231 321C224.034 321 205.535 324.241 200.603 318.566C195.775 313.01 199 295.14 199 288L192 288z"/>
<path style="fill:#4242d5; stroke:none;" d="M116 289L116 293L117 293L116 289z"/>
<path style="fill:#9bb7f8; stroke:none;" d="M151 289L152 290L151 289M120 290L121 291L120 290z"/>
<path style="fill:#4242d5; stroke:none;" d="M108 291L108 294L109 294L108 291M120 291L121 292L120 291z"/>
<path style="fill:#e0ddf1; stroke:none;" d="M128 291L129 292L128 291z"/>
<path style="fill:#f67972; stroke:none;" d="M358 291C351.681 297.459 337.919 296.73 338.333 309.907C338.479 314.535 343.439 315.873 343 321L381 321C381.704 316.546 386.207 314.882 386.879 310.896C389.517 295.256 367.557 293.705 358 291z"/>
<path style="fill:#9bb7f8; stroke:none;" d="M121 292L122 293L121 292z"/>
<path style="fill:#4242d5; stroke:none;" d="M120 293L121 294L120 293z"/>
<path style="fill:#f67972; stroke:none;" d="M121 293L122 294L121 293M123 293L121 295L121 296L125 293L123 293z"/>
<path style="fill:#4242d5; stroke:none;" d="M118 294L119 295L118 294z"/>
<path style="fill:#f67972; stroke:none;" d="M130 294L127 297L127 298L132 297L130 294z"/>
<path style="fill:#4242d5; stroke:none;" d="M81 295L82 296L81 295M116 295L117 296L116 295z"/>
<path style="fill:#9bb7f8; stroke:none;" d="M80 296L81 297L80 296z"/>
<path style="fill:#4242d5; stroke:none;" d="M107 296L107 299L108 299L107 296z"/>
<path style="fill:#e0ddf1; stroke:none;" d="M357 296L358 297L357 296z"/>
<path style="fill:#4242d5; stroke:none;" d="M80.3333 297.667L80.6667 298.333L80.3333 297.667z"/>
<path style="fill:#e0ddf1; stroke:none;" d="M364 297L364 298L369 298L369 297L364 297z"/>
<path style="fill:#9bb7f8; stroke:none;" d="M425 297L425 315L426 315L425 297z"/>
<path style="fill:#e0ddf1; stroke:none;" d="M357 298L357 299L364 300L364 299L357 298z"/>
<path style="fill:#9bb7f8; stroke:none;" d="M79 299L80 300L79 299z"/>
<path style="fill:#4242d5; stroke:none;" d="M106 299L107 300L106 299M79 300L79 304L80 304L79 300z"/>
<path style="fill:#9bb7f8; stroke:none;" d="M341 301L342 302L341 301z"/>
<path style="fill:#4242d5; stroke:none;" d="M103 302L104 303L103 302M102 304L102 307L103 307L102 304M79 306L79 310L80 310L79 306M103 309L104 310L103 309z"/>
<path style="fill:#9bb7f8; stroke:none;" d="M79.3333 310.667L79.6667 311.333L79.3333 310.667z"/>
<path style="fill:#4242d5; stroke:none;" d="M104 311L105 312L104 311z"/>
<path style="fill:#9bb7f8; stroke:none;" d="M337 311L338 312L337 311z"/>
<path style="fill:#4242d5; stroke:none;" d="M80 312L81 313L80 312z"/>
<path style="fill:#9bb7f8; stroke:none;" d="M80 313L81 314L80 313z"/>
<path style="fill:#4242d5; stroke:none;" d="M105.333 313.667L105.667 314.333L105.333 313.667M81 314L82 315L81 314z"/>
<path style="fill:#9bb7f8; stroke:none;" d="M81 315L82 316L81 315z"/>
<path style="fill:#4242d5; stroke:none;" d="M82 316L82 344L83 344L82 316M106 317L106 321L107 321L106 317z"/>
<path style="fill:#f67972; stroke:none;" d="M384 320L385 321L384 320z"/>
<path style="fill:#4242d5; stroke:none;" d="M343 321L343 336C337.476 333.704 319.659 329.996 326.194 342.956C330.422 351.343 341.847 347.865 339 360L361 358.209L381 360C380.097 348.64 393.569 352.026 397.82 343.956C404.781 330.743 387.216 333.385 381 337L381 321L380 321C380 325.302 381.239 331.961 378.972 335.786C372.777 346.244 352.823 344.511 345.603 336.362C342.154 332.468 344.931 325.601 343 321z"/>
<path style="fill:#020209; stroke:none;" d="M344 321C344 325.181 342.529 332.801 345.028 336.362C351.305 345.309 372.828 346.135 378.972 336.606C381.423 332.806 380 325.366 380 321L344 321z"/>
<path style="fill:#4242d5; stroke:none;" d="M424 321L424 339L425 339L424 321z"/>
<path style="fill:#f67972; stroke:none;" d="M384 322L385 323L384 322z"/>
<path style="fill:#4242d5; stroke:none;" d="M90 324L90 346L91 346L90 324z"/>
<path style="fill:#9bb7f8; stroke:none;" d="M91 324C91 331.401 87.8168 347.804 95 352L107 327L91 324z"/>
<path style="fill:#4242d5; stroke:none;" d="M92 324L93 325L92 324M94.6667 325.333L95.3333 325.667L94.6667 325.333M359 329L360 329L360 326L364 329C364.108 324.69 360.146 325.586 359 329M98 326L98 327L106 327L98 326z"/>
<path style="fill:#9bb7f8; stroke:none;" d="M360 326L360 330L364 330L360 326z"/>
<path style="fill:#4242d5; stroke:none;" d="M418 326L418 349L419 349L418 326z"/>
<path style="fill:#e0ddf1; stroke:none;" d="M122 328L123 329L122 328z"/>
<path style="fill:#f67972; stroke:none;" d="M385 328L386 329L385 328z"/>
<path style="fill:#e0ddf1; stroke:none;" d="M105 329L106 330L105 329M104 330L105 331L104 330M121.333 330.667L121.667 331.333L121.333 330.667z"/>
<path style="fill:#4242d5; stroke:none;" d="M361.667 330.333L362.333 330.667L361.667 330.333z"/>
<path style="fill:#f67972; stroke:none;" d="M385 330L386 331L385 330z"/>
<path style="fill:#4242d5; stroke:none;" d="M93 352C94.1181 357.142 93.4733 370.841 87.7724 373.397C82.5904 375.719 73.6277 374 68 374L68 375L90 375L88 380C96.4115 382.556 112.899 387.025 114 375L433 375L433 374L115 374C117.035 363.199 122.805 347.977 120.768 337.059C119.463 330.063 104.053 331.208 100.228 335.19C95.652 339.953 97.0197 347.09 93 352z"/>
<path style="fill:#9bb7f8; stroke:none;" d="M330 331L330 332L334 332L330 331z"/>
<path style="fill:#f67972; stroke:none;" d="M340 331L340 333L342 333L342 331L340 331z"/>
<path style="fill:#9bb7f8; stroke:none;" d="M328.667 332.333L329.333 332.667L328.667 332.333M335.667 332.333L336.333 332.667L335.667 332.333M389.667 332.333L390.333 332.667L389.667 332.333M393.667 332.333L394.333 332.667L393.667 332.333M327 333L328 334L327 333M337.667 333.333L338.333 333.667L337.667 333.333z"/>
<path style="fill:#f67972; stroke:none;" d="M383 333L384 334L383 333z"/>
<path style="fill:#9bb7f8; stroke:none;" d="M387 333L388 334L387 333M396 333L397 334L396 333M326 334L327 335L326 334z"/>
<path style="fill:#f67972; stroke:none;" d="M339 334L340 335L339 334z"/>
<path style="fill:#9bb7f8; stroke:none;" d="M340 334L341 335L340 334M384.667 334.333L385.333 334.667L384.667 334.333M397 334L398 335L397 334M341.667 335.333L342.333 335.667L341.667 335.333M382.667 335.333L383.333 335.667L382.667 335.333M398.333 335.667L398.667 336.333L398.333 335.667M325.333 336.667L325.667 337.333L325.333 336.667M381 336L382 337L381 336M399 338L399 342L400 342L399 338M424 339L424 353L425 353L424 339M325 342L326 343L325 342M82 344L82 354L83 354L82 344z"/>
<path style="fill:#4242d5; stroke:none;" d="M91.3333 349.667L91.6667 350.333L91.3333 349.667M417 350L418 351L417 350M92 351L93 352L92 351M416 351L417 352L416 351M414.667 352.333L415.333 352.667L414.667 352.333M338 360L337 353C333.331 353 326.621 351.725 323.529 354.028C314.571 360.702 335.086 360.694 338 360z"/>
<path style="fill:#f67972; stroke:none;" d="M339 353L336 354L339 360L339 353z"/>
<path style="fill:#4242d5; stroke:none;" d="M384 353L384 360C387.442 361.088 406.695 361.682 397.258 354.028C394.377 351.691 387.508 353 384 353z"/>
<path style="fill:#f67972; stroke:none;" d="M382 354L380 358L381 360L384 360L384 359L385 354L382 354z"/>
<path style="fill:#e0ddf1; stroke:none;" d="M383 354L384 355L383 354z"/>
<path style="fill:#4242d5; stroke:none;" d="M83 355L84 356L83 355M423 355L424 356L423 355z"/>
<path style="fill:#9bb7f8; stroke:none;" d="M83 356L84 357L83 356M380 356L381 357L380 356M84 357L85 358L84 357M384.333 357.667L384.667 358.333L384.333 357.667M422 357L423 358L422 357M68 358L69 359L68 358z"/>
<path style="fill:#4242d5; stroke:none;" d="M69 358L69 359L85 359L69 358z"/>
<path style="fill:#9bb7f8; stroke:none;" d="M380 358L381 359L380 358z"/>
<path style="fill:#e0ddf1; stroke:none;" d="M381 358L382 359L381 358M383 358L384 359L383 358z"/>
<path style="fill:#4242d5; stroke:none;" d="M421 358L421 359L432 359L421 358z"/>
<path style="fill:#9bb7f8; stroke:none;" d="M432.667 358.333L433.333 358.667L432.667 358.333M66 359L67 360L66 359z"/>
<path style="fill:#4242d5; stroke:none;" d="M434 359L435 360L434 359M65 360L66 361L65 360M435 360L437 362L435 360z"/>
<path style="fill:#9bb7f8; stroke:none;" d="M436 360L437 361L436 360z"/>
<path style="fill:#4242d5; stroke:none;" d="M64 361L65 362L64 361z"/>
<path style="fill:#9bb7f8; stroke:none;" d="M63 362L64 363L63 362z"/>
<path style="fill:#4242d5; stroke:none;" d="M437 362L438 363L437 362M63 363L64 364L63 363M438 364L438 369L439 369L438 364z"/>
<path style="fill:#9bb7f8; stroke:none;" d="M62 365L62 368L63 368L62 365z"/>
<path style="fill:#4242d5; stroke:none;" d="M63 369L64 370L63 369z"/>
<path style="fill:#9bb7f8; stroke:none;" d="M438 369L439 370L438 369M63 370L64 371L63 370z"/>
<path style="fill:#4242d5; stroke:none;" d="M437 370L436 372L437 370M64 371L65 372L64 371z"/>
<path style="fill:#9bb7f8; stroke:none;" d="M437 371L438 372L437 371z"/>
<path style="fill:#4242d5; stroke:none;" d="M65 372L66 373L65 372z"/>
<path style="fill:#9bb7f8; stroke:none;" d="M436 372L437 373L436 372z"/>
<path style="fill:#4242d5; stroke:none;" d="M66 373L67 374L66 373M434 373L435 374L434 373z"/>
<path style="fill:#9bb7f8; stroke:none;" d="M433 374L434 375L433 374M89.3333 375.667L89.6667 376.333L89.3333 375.667M114.333 375.667L114.667 376.333L114.333 375.667z"/>
<path style="fill:#e0ddf1; stroke:none;" d="M104 383L105 422L106 422C106 411.415 99.9479 392.068 108 384L111 387C111 399.75 104.495 421.556 115 431C109.324 417.76 111.211 406.16 113 392C129.996 399.573 144.143 412.294 162 419.189C218.788 441.116 289.683 443.838 345 416.247C362.664 407.436 389.292 393.674 398 375C305.651 375 212.26 370.898 120.015 375.019C112.842 375.34 112.716 382.969 104 383z"/>
<path style="fill:#9bb7f8; stroke:none;" d="M88 378L89 379L88 378z"/>
<path style="fill:#e0ddf1; stroke:none;" d="M87 379L80 390L81 390L87 379z"/>
<path style="fill:#9bb7f8; stroke:none;" d="M113 379L113 382L114 382L113 379z"/>
<path style="fill:#f67972; stroke:none;" d="M75 424C74.7565 417.287 79.7007 409.634 83 404C84.9088 400.741 86.536 397.373 88.2222 394C89.5961 391.252 93.385 386.336 92.5833 383.111C90.8994 376.337 83.564 384.75 82.1944 387C77.627 394.502 75.9809 405.384 75.0833 414C74.7002 417.678 70.0154 422.952 75 424z"/>
<path style="fill:#9bb7f8; stroke:none;" d="M92 381L92 382L96 382L92 381z"/>
<path style="fill:#e0ddf1; stroke:none;" d="M93 382L93 385L94 385L95 382L93 382M98 382L99 383L98 382z"/>
<path style="fill:#9bb7f8; stroke:none;" d="M99 382L99 383L105 383L99 382M111.667 382.333L112.333 382.667L111.667 382.333z"/>
<path style="fill:#f67972; stroke:none;" d="M106 384C102.442 393.762 102.061 423.671 112 429L111 387L108 384L106 384M110 384L110 386L112 384L110 384z"/>
<path style="fill:#e0ddf1; stroke:none;" d="M92.3333 385.667L92.6667 386.333L92.3333 385.667M91.3333 387.667L91.6667 388.333L91.3333 387.667M90.3333 389.667L90.6667 390.333L90.3333 389.667M108 390L109 391L108 390M79.3333 391.667L79.6667 392.333L79.3333 391.667M89.3333 391.667L89.6667 392.333L89.3333 391.667M88.3333 393.667L88.6667 394.333L88.3333 393.667M78 394L78 397L79 397L78 394M87.3333 395.667L87.6667 396.333L87.3333 395.667M77 397L67 428L69 430C71.9934 429.936 73.3456 430.054 74 427L75 427L75 429L76 429L80 411L75 424L77 397M86.3333 397.667L86.6667 398.333L86.3333 397.667M85.3333 399.667L85.6667 400.333L85.3333 399.667M84.3333 401.667L84.6667 402.333L84.3333 401.667M83 403L80 411L81 411L83 403M79 404L78 406L79 404M78.3333 407.667L78.6667 408.333L78.3333 407.667M76.6667 411.333L77.3333 411.667L76.6667 411.333z"/>
<path style="fill:#9bb7f8; stroke:none;" d="M104.667 422.333L105.333 422.667L104.667 422.333M103 423L104 424L103 423z"/>
<path style="fill:#4242d5; stroke:none;" d="M105.333 423.667L105.667 424.333L105.333 423.667M103 424L104 425L103 424M106 425L107 426L106 425M107 426L108 427L107 426z"/>
<path style="fill:#f67972; stroke:none;" d="M68 427L69 428L68 427M74.3333 427.667L74.6667 428.333L74.3333 427.667z"/>
<path style="fill:#4242d5; stroke:none;" d="M103 427L103 430L104 430L103 427z"/>
<path style="fill:#9bb7f8; stroke:none;" d="M66 431L67 431L68 429L71 431L71 430L69 428L66 431z"/>
<path style="fill:#f67972; stroke:none;" d="M70 428L71 429L70 428z"/>
<path style="fill:#4242d5; stroke:none;" d="M105 428L106 429L105 428z"/>
<path style="fill:#9bb7f8; stroke:none;" d="M106 428L107 429L106 428z"/>
<path style="fill:#4242d5; stroke:none;" d="M107 428L108 429L107 428M110 428L111 429L110 428M67 429L68 430L67 429M74 429L75 432L74 429z"/>
<path style="fill:#9bb7f8; stroke:none;" d="M105 429L106 430L105 429z"/>
<path style="fill:#4242d5; stroke:none;" d="M108 429L109 430L108 429M112 429L113 430L112 429M68 430L69 431L68 430z"/>
<path style="fill:#f67972; stroke:none;" d="M71.6667 430.333L72.3333 430.667L71.6667 430.333z"/>
<path style="fill:#9bb7f8; stroke:none;" d="M103 430L104 434L105 434L103 430z"/>
<path style="fill:#4242d5; stroke:none;" d="M109 430L110 431L109 430M113 430L114 431L113 430M66 431L66 436L67 436L66 431M104.333 431.667L104.667 432.333L104.333 431.667M110 431L111 432L110 431M114 431L115 432L114 431z"/>
<path style="fill:#9bb7f8; stroke:none;" d="M115.667 431.333L116.333 431.667L115.667 431.333M74 432L75 433L74 432M110 432L111 433L110 432z"/>
<path style="fill:#4242d5; stroke:none;" d="M117 432L112 433L112 434L118 433L117 432z"/>
<path style="fill:#9bb7f8; stroke:none;" d="M111 433L112 434L111 433M117 433L118 434L117 433M73 434L74 435L73 434z"/>
<path style="fill:#4242d5; stroke:none;" d="M72 435L73 436L72 435z"/>
<path style="fill:#9bb7f8; stroke:none;" d="M66 436L67 437L66 436z"/>
<path style="fill:#4242d5; stroke:none;" d="M70 437L71 438L70 437z"/>
<path style="fill:#9bb7f8; stroke:none;" d="M71 437L72 438L71 437M67 438L68 439L67 438z"/>
<path style="fill:#4242d5; stroke:none;" d="M68 438L69 439L68 438z"/>
<path style="fill:#9bb7f8; stroke:none;" d="M69 438L70 439L69 438z"/>
</svg>
